<svg viewBox="0 0 527 117" fill="none" xmlns="http://www.w3.org/2000/svg">
<path d="M105.823 27.4516H167.874C176.613 27.4516 183.697 34.5357 183.697 43.2742C183.697 52.0128 176.613 59.0968 167.874 59.0968H105.823C97.084 59.0968 90 52.0128 90 43.2742C90 34.5357 97.084 27.4516 105.823 27.4516Z" fill="white" stroke="#262626" stroke-width="4"/>
<rect x="90" y="58.5269" width="100" height="28.9032" rx="14.4516" fill="white" stroke="#262626" stroke-width="4"/>
<rect x="88" y="9" width="51.514" height="85" fill="white"/>
<path d="M81.8436 64L81.5621 89.1636" stroke="#262626" stroke-width="4"/>
<path d="M101.809 25H43.3053C30.6117 25 20.3216 34.6259 20.3216 46.5C20.3216 58.3741 30.6117 68 43.3053 68H101.809C114.503 68 124.793 58.3741 124.793 46.5C124.793 34.6259 114.503 25 101.809 25Z" fill="white" stroke="#262626" stroke-width="4"/>
<path d="M79.522 13H18V70H79.522V13Z" fill="white"/>
<path d="M105.059 69L127.789 89" stroke="#262626" stroke-width="4"/>
<path d="M444 23V91" stroke="#262626" stroke-width="4"/>
<path d="M370 27C391.21 27 415.542 27 425.06 27" stroke="#262626" stroke-width="4"/>
<path d="M423.093 60.1935H373.933V90.3871" stroke="#262626" stroke-width="4"/>
<path d="M63.7421 23.9091H67.9591V69.6548C67.9591 74.3553 66.8683 78.5498 64.6867 82.2383C62.5051 85.9042 59.4914 88.8055 55.6455 90.9421C51.8221 93.0562 47.4252 94.1133 42.4548 94.1133C37.5069 94.1133 33.11 93.0562 29.2641 90.9421C25.4182 88.8055 22.3933 85.893 20.1892 82.2045C18.0076 78.5161 16.9281 74.3329 16.9505 69.6548V23.9091H21.1675V69.4187C21.1675 73.3995 22.0671 76.9418 23.8664 80.0455C25.6881 83.1491 28.1958 85.6006 31.3895 87.3999C34.5831 89.1766 38.2716 90.065 42.4548 90.065C46.638 90.065 50.3265 89.1766 53.5202 87.3999C56.7138 85.6006 59.2103 83.1491 61.0095 80.0455C62.8312 76.9418 63.7421 73.3995 63.7421 69.4187V23.9091Z" fill="#262626"/>
<path d="M341.478 23.5455V89H337.579L295.839 30.8004H295.455V89H291.46V23.5455H295.391L337.131 81.8089H337.515V23.5455H341.478Z" fill="#262626"/>
<path d="M202.187 87.5963C201.721 88.5974 202.154 89.7873 203.155 90.2542C204.156 90.721 205.346 90.2879 205.813 89.2868L202.187 87.5963ZM205.813 89.2868L235.396 25.8452L231.771 24.1548L202.187 87.5963L205.813 89.2868Z" fill="#262626"/>
<path d="M236.469 24.7115C236.002 23.7104 234.812 23.2773 233.811 23.7441C232.81 24.2109 232.377 25.4009 232.844 26.402L236.469 24.7115ZM232.844 26.402L262.427 89.8435L266.052 88.1531L236.469 24.7115L232.844 26.402Z" fill="#262626"/>
<path d="M458.227 27.8807V24.0909H505.109V27.8807H483.71V91H479.626V27.8807H458.227Z" fill="#262626"/>
</svg>
